<svg xmlns="http://www.w3.org/2000/svg" viewBox="0 0 29 30.41"><defs><style>.cls-1{fill:#fff;}</style></defs><title>Asset 4</title><g id="Layer_2" data-name="Layer 2"><g id="left_nav" data-name="left nav"><path class="cls-1" d="M27.48,12.73h-.79a.55.55,0,0,1-.52-.42A11.78,11.78,0,0,0,24.79,9a.53.53,0,0,1,.08-.66l1.06-1.06a1.51,1.51,0,0,0,0-2.14L24.57,3.78a1.5,1.5,0,0,0-2.14,0L21.37,4.84a.57.57,0,0,1-.67.08,11.78,11.78,0,0,0-3.31-1.38A.56.56,0,0,1,17,3V1.52A1.52,1.52,0,0,0,15.45,0h-1.9A1.52,1.52,0,0,0,12,1.52V3a.56.56,0,0,1-.41.53A11.78,11.78,0,0,0,8.3,4.92a.57.57,0,0,1-.67-.08l-.56-.56a1.53,1.53,0,0,0-2.15,0L3.57,5.63a1.53,1.53,0,0,0,0,2.15l.56.56A.53.53,0,0,1,4.21,9a11.78,11.78,0,0,0-1.38,3.31.55.55,0,0,1-.52.42H1.52A1.52,1.52,0,0,0,0,14.25v1.91a1.52,1.52,0,0,0,1.52,1.52h.79a.55.55,0,0,1,.52.42,11.78,11.78,0,0,0,1.38,3.31.55.55,0,0,1-.08.67L3.07,23.14a1.51,1.51,0,0,0,0,2.14l1.36,1.36a1.51,1.51,0,0,0,2.14,0l1.06-1.06a.54.54,0,0,1,.67-.08,12.08,12.08,0,0,0,3.31,1.38.53.53,0,0,1,.41.52v1.49a1.52,1.52,0,0,0,1.53,1.52h1.9A1.52,1.52,0,0,0,17,28.89V27.4a.53.53,0,0,1,.41-.52A12.08,12.08,0,0,0,20.7,25.5a.54.54,0,0,1,.67.08l.56.56a1.53,1.53,0,0,0,2.15,0l1.35-1.36a1.53,1.53,0,0,0,0-2.15l-.56-.55a.55.55,0,0,1-.08-.67,11.78,11.78,0,0,0,1.38-3.31.55.55,0,0,1,.52-.42h.79A1.52,1.52,0,0,0,29,16.16V14.25A1.52,1.52,0,0,0,27.48,12.73ZM14.5,23a7.78,7.78,0,1,1,7.78-7.78A7.78,7.78,0,0,1,14.5,23Z"/></g></g></svg>